<svg xmlns="http://www.w3.org/2000/svg" width="22" height="20"><path fill-rule="evenodd" fill="#333" d="M19.826 12.011h-.393v3.631a.364.364 0 0 1-.366.364.37.37 0 0 1-.272-.119l-1.928-2.101v.04a2.167 2.167 0 0 1-2.175 2.154l-6.096.024-3.558 3.877a.37.37 0 0 1-.403.095.363.363 0 0 1-.235-.339v-3.632H2.174A2.166 2.166 0 0 1 0 13.852V6.174C0 4.986.975 4.02 2.174 4.02l2.959-.006V2.153c0-1.188.976-2.154 2.175-2.154l12.518.026C21.025.025 22 .991 22 2.179v7.678a2.167 2.167 0 0 1-2.174 2.154zM5.501 4.739H5.5l-3.325.007c-.795 0-1.442.64-1.442 1.428v7.677c0 .787.647 1.427 1.441 1.427h2.593c.202 0 .366.163.366.364v3.056l3.029-3.301a.372.372 0 0 1 .27-.119l6.259-.025c.796 0 1.442-.64 1.442-1.427V6.148c0-.787-.646-1.428-1.441-1.428l-9.191.019zm15.766-2.561c0-.787-.646-1.427-1.441-1.427h-.001L7.307.725c-.794 0-1.44.641-1.44 1.428v1.859l8.825-.018c1.199 0 2.175.966 2.175 2.154v6.557l1.833 1.998v-3.056c0-.201.164-.364.367-.364h.759c.794 0 1.441-.64 1.441-1.427V2.178zM13.2 12.711H3.667a.365.365 0 0 1-.367-.363c0-.201.164-.364.367-.364H13.2c.203 0 .367.163.367.364 0 .2-.164.363-.367.363zm0-2.179H3.667a.365.365 0 0 1-.367-.363c0-.201.164-.364.367-.364H13.2c.203 0 .367.163.367.364 0 .2-.164.363-.367.363zM8.433 8.353H3.667a.365.365 0 0 1-.367-.364c0-.2.164-.363.367-.363h4.766c.203 0 .367.163.367.363a.365.365 0 0 1-.367.364z"/></svg>