<svg id="craft-logo" data-name="CraftDevelopment" xmlns="http://www.w3.org/2000/svg" viewBox="0 0 220 220"><defs><style>.cls-1{fill:#faac09}</style></defs><title>CraftDevelopment</title><g class="bg"><path class="cls-1" d="M0 0h220v220H0z"/></g><path d="M205 205H15V15h190zm-189.19-.73h188.42V15.77H15.77z"/><g class="triangle"><path d="M110 100.61a3.14 3.14 0 1 0-3.14-3.14 3.15 3.15 0 0 0 3.14 3.14zm0-5.48a2.33 2.33 0 1 1-2.33 2.33 2.34 2.34 0 0 1 2.33-2.33z"/><path d="M110 104.86a7.39 7.39 0 1 0-7.39-7.39 7.4 7.4 0 0 0 7.39 7.39zm0-14a6.58 6.58 0 1 1-6.58 6.58 6.59 6.59 0 0 1 6.58-6.56z"/><path d="M110 109.11a11.64 11.64 0 1 0-11.64-11.64A11.66 11.66 0 0 0 110 109.11zm0-22.48a10.83 10.83 0 1 1-10.83 10.84A10.85 10.85 0 0 1 110 86.63z"/><path d="M110 113.36a15.89 15.89 0 1 0-15.89-15.89A15.91 15.91 0 0 0 110 113.36zm0-31a15.08 15.08 0 1 1-15.08 15.11A15.1 15.1 0 0 1 110 82.38z"/><path d="M110 117.61a20.14 20.14 0 1 0-20.14-20.14A20.17 20.17 0 0 0 110 117.61zm0-39.48a19.33 19.33 0 1 1-19.33 19.34A19.36 19.36 0 0 1 110 78.13z"/><path d="M110 121.86a24.39 24.39 0 1 0-24.39-24.39A24.42 24.42 0 0 0 110 121.86zm0-48a23.58 23.58 0 1 1-23.58 23.61A23.61 23.61 0 0 1 110 73.88z"/><path d="M110 126.11a28.64 28.64 0 1 0-28.64-28.64A28.68 28.68 0 0 0 110 126.11zm0-56.48a27.83 27.83 0 1 1-27.83 27.84A27.87 27.87 0 0 1 110 69.63z"/><path d="M110 130.36a32.89 32.89 0 1 0-32.89-32.89A32.93 32.93 0 0 0 110 130.36zm0-65a32.08 32.08 0 1 1-32.08 32.11A32.12 32.12 0 0 1 110 65.38z"/><path d="M73.67 97.47a36.38 36.38 0 0 1 .54-6.2l-1.09 1.89a37 37 0 0 0 22.17 38.41h2.16a36.4 36.4 0 0 1-23.78-34.1zm14.14-29.78l-1.1 1.91a36.25 36.25 0 0 1 46.58 0l-1.1-1.91a37.07 37.07 0 0 0-44.37 0zm58.53 29.78a36.4 36.4 0 0 1-23.79 34.1h2.16a37 37 0 0 0 22.17-38.41l-1.09-1.89a36.38 36.38 0 0 1 .55 6.2z"/><path d="M151.25 100.72l-.72-1.25A40.59 40.59 0 0 1 132 131.56h1.46a41.4 41.4 0 0 0 17.79-30.84zm-81.78-1.25l-.72 1.25a41.4 41.4 0 0 0 17.82 30.84H88a40.59 40.59 0 0 1-18.53-32.09zM110 56.88a40.32 40.32 0 0 1 18.54 4.5l-.74-1.28a41.33 41.33 0 0 0-35.61 0l-.74 1.28a40.32 40.32 0 0 1 18.55-4.5z"/><path d="M79.7 131.56h1.23a44.83 44.83 0 0 1-15-26l-.63 1.08a45.65 45.65 0 0 0 14.4 24.92zM110 52.63a44.62 44.62 0 0 1 15 2.58l-.61-1.06a45.46 45.46 0 0 0-28.73 0L95 55.21a44.62 44.62 0 0 1 15-2.58zm29.06 78.93h1.23a45.65 45.65 0 0 0 14.41-24.87l-.63-1.08a44.83 44.83 0 0 1-15.01 25.95zM98.67 48.88l-.55 1a49 49 0 0 1 23.76 0l-.55-1a49.53 49.53 0 0 0-22.65 0zm46.59 82.68h1.12A49.9 49.9 0 0 0 157.74 112l-.56-1a49.09 49.09 0 0 1-11.92 20.56zM62.82 111l-.56 1a49.9 49.9 0 0 0 11.37 19.61h1.12A49.09 49.09 0 0 1 62.82 111zM60 115.93l-.52.89A54.16 54.16 0 0 0 68 131.56h1a53.36 53.36 0 0 1-9-15.63zm100 0a53.35 53.35 0 0 1-9 15.63h1a54.16 54.16 0 0 0 8.53-14.74zm-50-71.8a53.41 53.41 0 0 1 9 .78l-.5-.91a54 54 0 0 0-17 0l-.53.92a53.41 53.41 0 0 1 9.03-.79zm0-4.25a57.91 57.91 0 0 1 6.33.36l-.5-.87c-1.92-.19-3.86-.29-5.83-.29s-3.91.1-5.83.29l-.5.87a57.9 57.9 0 0 1 6.33-.36zm-46.37 91.68a57.61 57.61 0 0 1-6.36-11l-.5.86a58.4 58.4 0 0 0 5.86 10.12zm92.74 0h1a58.41 58.41 0 0 0 5.86-10.12l-.5-.86a57.61 57.61 0 0 1-6.36 10.98zM106.74 34.9l-.49.85c1.24-.07 2.49-.12 3.75-.12s2.51 0 3.75.12l-.49-.85q-1.62-.08-3.26-.08t-3.26.08zm-52.05 90.17l-.48.83a62.65 62.65 0 0 0 3.28 5.67h1a61.86 61.86 0 0 1-3.8-6.5zm106.86 6.49h1a62.67 62.67 0 0 0 3.28-5.66l-.48-.83a61.86 61.86 0 0 1-3.8 6.49zm6.27-2.14c-.4.72-.81 1.44-1.24 2.15h.93c.26-.44.52-.89.77-1.34zm-115.64 0l-.47.81c.25.45.51.9.77 1.34h.93c-.41-.71-.83-1.43-1.23-2.15zM110 31.38h1.24l-.47-.82h-1.52l-.47.82c.4.02.8 0 1.22 0z"/><circle cx="110" cy="97.45" r=".74"/><path d="M50.94 131.56l.88-1.53.89 1.53h-1.77zm118.12 0l-.88-1.53-.89 1.53h1.77zM110 29.27l-.88 1.51h1.76l-.88-1.51z"/></g><path d="M54.78 180.28v8.08h-.55v-1.26a2.68 2.68 0 0 1-2.38 1.35 2.94 2.94 0 0 1 0-5.89 2.52 2.52 0 0 1 2.37 1.34v-3.62zm-5.23 5.23a2.21 2.21 0 0 0 2.33 2.39 2.4 2.4 0 0 0 0-4.79 2.21 2.21 0 0 0-2.33 2.4zm11.81 0a2.87 2.87 0 0 1 2.9-2.94 2.66 2.66 0 0 1 2.82 3.21h-5.14a2.24 2.24 0 0 0 2.32 2.11 2.68 2.68 0 0 0 2.05-.87l.4.32a3.13 3.13 0 0 1-2.46 1.1 2.8 2.8 0 0 1-2.89-2.93zm5.21-.23a2.09 2.09 0 0 0-2.31-2.19 2.28 2.28 0 0 0-2.32 2.19zm6.43-2.62h.62l2.08 5 2.08-5h.62l-2.4 5.7h-.62zm11.18 2.85a2.87 2.87 0 0 1 2.9-2.94 2.66 2.66 0 0 1 2.82 3.21h-5.14a2.24 2.24 0 0 0 2.32 2.11 2.68 2.68 0 0 0 2.05-.87l.4.32a3.13 3.13 0 0 1-2.46 1.1 2.8 2.8 0 0 1-2.89-2.93zm5.21-.23a2.09 2.09 0 0 0-2.31-2.19 2.28 2.28 0 0 0-2.32 2.19zm7.68-5v8.08h-.57v-8.08zm6.46 5.24a2.9 2.9 0 1 1 5.79 0 2.9 2.9 0 1 1-5.79 0zm5.24 0a2.34 2.34 0 1 0-4.69 0 2.34 2.34 0 1 0 4.69 0zm7.01 5.21v-8.08h.55V184a2.72 2.72 0 0 1 2.47-1.43 2.95 2.95 0 0 1-.13 5.89 2.57 2.57 0 0 1-2.35-1.42v3.69zm5.23-5.23a2.2 2.2 0 0 0-2.33-2.39 2.4 2.4 0 0 0 0 4.8 2.21 2.21 0 0 0 2.32-2.4zm15.55 2.86v-3.42a1.76 1.76 0 0 0-1.82-1.87 1.8 1.8 0 0 0-1.83 1.9v3.38h-.57V185a1.83 1.83 0 1 0-3.66 0v3.38h-.57v-5.7h.53v.95a2 2 0 0 1 1.86-1.06 2.1 2.1 0 0 1 2.11 1.41 2.2 2.2 0 0 1 2.11-1.41 2.29 2.29 0 0 1 2.39 2.4v3.42zm6.98-2.85a2.87 2.87 0 0 1 2.9-2.94 2.66 2.66 0 0 1 2.82 3.21h-5.14a2.24 2.24 0 0 0 2.32 2.11 2.68 2.68 0 0 0 2.05-.87l.4.32a3.13 3.13 0 0 1-2.46 1.1 2.8 2.8 0 0 1-2.89-2.93zm5.21-.23a2.09 2.09 0 0 0-2.31-2.19 2.28 2.28 0 0 0-2.32 2.19zm7.67-2.62v1a2.27 2.27 0 0 1 2-1.12 2.38 2.38 0 0 1 2.57 2.52v3.29h-.57v-3.28a1.83 1.83 0 0 0-2-2 2 2 0 0 0-2 2.08v3.17h-.57v-5.7zm12.29-1.72v1.72h1.94v.47h-1.94v3.47c0 .77.16 1.32 1.05 1.32a2.12 2.12 0 0 0 .88-.23l.2.46a2.49 2.49 0 0 1-1.07.29c-1.21 0-1.6-.72-1.6-1.83v-3.47h-1.21v-.47h1.21V181z" class="development"/><g class="craft"><path d="M72.67 167.39a13.65 13.65 0 0 1-9.84 3.85c-9.62 0-13.69-6.62-13.72-13.35s4.37-13.65 13.72-13.65a13.36 13.36 0 0 1 9.51 4l-3.26 3.14a8.9 8.9 0 0 0-6.25-2.44c-6.25 0-9 4.66-8.92 9s2.52 8.77 8.92 8.77a9.53 9.53 0 0 0 6.51-2.71zm25.71 3.26h-5.81L85 162h-4.7v8.66h-4.85v-25.95h12.32c6.1 0 9.32 4.11 9.32 8.58 0 3.55-1.63 7.14-6.55 8.14l7.84 8.84zM80.33 149.3v8.29h7.44c3.11 0 4.44-2.07 4.44-4.14a4.06 4.06 0 0 0-4.44-4.14z"/><path d="M118.77 165.76h-13.54l-2.23 4.89h-5.28l11.62-25.89h5.33l11.62 25.89h-5.33zM112 150.19l-4.81 11h9.62zm16.09 20.46v-25.86h18.61v4.7H133v7.07h13v4.51h-13v9.58zm29.81-21.46h-8.21v-4.44H171v4.44h-8.21v21.46h-4.89z"/></g></svg>