<svg id="craft-logo" xmlns="http://www.w3.org/2000/svg" viewBox="0 140 220 220"><defs><style>.cls-1{fill:#010101}</style></defs><path d="M56.61 175v7.82h-.54v-1.22a2.6 2.6 0 0 1-2.3 1.31 2.85 2.85 0 0 1 0-5.7 2.44 2.44 0 0 1 2.29 1.3V175zm-5.06 5.06a2.14 2.14 0 0 0 2.26 2.31 2.32 2.32 0 0 0 0-4.64 2.14 2.14 0 0 0-2.26 2.34zm11.45.01a2.78 2.78 0 0 1 2.81-2.85 2.58 2.58 0 0 1 2.73 3.11h-5a2.17 2.17 0 0 0 2.25 2 2.6 2.6 0 0 0 2-.84l.39.31a3 3 0 0 1-2.38 1.06 2.71 2.71 0 0 1-2.8-2.79zm5-.22a2 2 0 0 0-2.24-2.12 2.21 2.21 0 0 0-2.25 2.12zm6.27-2.54h.6l2 4.88 2-4.88h.6l-2.31 5.52h-.6zm10.81 2.76a2.78 2.78 0 0 1 2.81-2.85 2.58 2.58 0 0 1 2.73 3.11h-5a2.17 2.17 0 0 0 2.25 2 2.6 2.6 0 0 0 2-.84l.39.31a3 3 0 0 1-2.38 1.06 2.71 2.71 0 0 1-2.8-2.79zm5-.22a2 2 0 0 0-2.24-2.12 2.21 2.21 0 0 0-2.25 2.12zm7.48-4.85v7.82H97V175zm6.26 5.08a2.81 2.81 0 1 1 5.61 0 2.81 2.81 0 1 1-5.61 0zm5.07 0a2.27 2.27 0 1 0-4.54 0 2.27 2.27 0 1 0 4.54 0zm6.79 5.05v-7.82h.54v1.31a2.63 2.63 0 0 1 2.39-1.39 2.85 2.85 0 0 1-.12 5.7 2.49 2.49 0 0 1-2.28-1.37v3.58zm5.06-5.06a2.13 2.13 0 0 0-2.26-2.31 2.33 2.33 0 0 0 0 4.65 2.14 2.14 0 0 0 2.26-2.34zm15.06 2.76v-3.31a1.71 1.71 0 0 0-1.77-1.81 1.74 1.74 0 0 0-1.78 1.84v3.27h-.55v-3.27a1.77 1.77 0 1 0-3.54 0v3.27h-.55v-5.52h.51v.92a1.94 1.94 0 0 1 1.8-1 2 2 0 0 1 2 1.36 2.13 2.13 0 0 1 2-1.36 2.22 2.22 0 0 1 2.31 2.32v3.31zm6.76-2.76a2.78 2.78 0 0 1 2.81-2.85 2.58 2.58 0 0 1 2.73 3.11h-5a2.17 2.17 0 0 0 2.25 2 2.6 2.6 0 0 0 2-.84l.39.31a3 3 0 0 1-2.38 1.06 2.71 2.71 0 0 1-2.8-2.79zm5-.22a2 2 0 0 0-2.24-2.12 2.21 2.21 0 0 0-2.25 2.12zm7.44-2.54v1a2.2 2.2 0 0 1 2-1.08 2.3 2.3 0 0 1 2.49 2.44v3.19h-.55v-3.17a1.77 1.77 0 0 0-2-1.91 1.92 1.92 0 0 0-1.93 2v3.07h-.55v-5.52zm11.94-1.67v1.67h1.88v.46h-1.88v3.36c0 .75.16 1.27 1 1.27a2 2 0 0 0 .85-.22l.19.45a2.41 2.41 0 0 1-1 .28c-1.17 0-1.55-.69-1.55-1.78v-3.36h-1.17v-.46h1.17v-1.61z" class="development"/><g class="craft"><path d="M73.94 162.52a13.22 13.22 0 0 1-9.53 3.73c-9.31 0-13.25-6.41-13.29-12.93s4.23-13.22 13.29-13.22a12.94 12.94 0 0 1 9.21 3.83l-3.15 3a8.61 8.61 0 0 0-6.05-2.36c-6.05 0-8.67 4.51-8.63 8.71s2.44 8.49 8.63 8.49a9.23 9.23 0 0 0 6.31-2.54zm24.89 3.16h-5.62l-7.31-8.38h-4.55v8.38h-4.73v-25.12h11.93c5.91 0 9 4 9 8.31 0 3.44-1.58 6.91-6.34 7.88l7.59 8.56zM81.35 145v8h7.2c3 0 4.3-2 4.3-4a3.93 3.93 0 0 0-4.3-4z"/><path d="M118.57 160.95h-13.11l-2.15 4.73h-5.12l11.25-25.08h5.16l11.25 25.08h-5.16zM112 145.87l-4.66 10.68h9.31zm15.6 19.81v-25h18v4.55h-13.27V152h12.57v4.37h-12.57v9.28zm28.88-20.78h-8v-4.3h20.63v4.3h-8v20.78h-4.73z"/></g></svg>