<svg id="craft-logo" xmlns="http://www.w3.org/2000/svg" viewBox="0 0 220 220"><defs><style>.cls-1{fill:#010101}</style></defs><g class="logo-border"><path class="cls-1" d="M205 205H15V15h190zm-189.19-.73h188.42V15.77H15.77z"/></g><g class="triangle"><path d="M110.08 97.85a3 3 0 1 0-3-3 3 3 0 0 0 3 3zm0-5.3a2.26 2.26 0 1 1-2.26 2.26 2.26 2.26 0 0 1 2.26-2.26z"/><path d="M110.08 102a7.16 7.16 0 1 0-7.16-7.16 7.17 7.17 0 0 0 7.16 7.16zm0-13.54a6.38 6.38 0 1 1-6.38 6.38 6.38 6.38 0 0 1 6.38-6.41z"/><path d="M110.08 106.08a11.28 11.28 0 1 0-11.27-11.27 11.29 11.29 0 0 0 11.27 11.27zm0-21.77a10.49 10.49 0 1 1-10.49 10.5 10.5 10.5 0 0 1 10.49-10.49z"/><path d="M110.08 110.2a15.39 15.39 0 1 0-15.39-15.39 15.41 15.41 0 0 0 15.39 15.39zm0-30a14.61 14.61 0 1 1-14.6 14.61 14.62 14.62 0 0 1 14.6-14.61z"/><path d="M110.08 114.32a19.51 19.51 0 1 0-19.5-19.51 19.53 19.53 0 0 0 19.5 19.51zm0-38.23a18.72 18.72 0 1 1-18.72 18.72 18.74 18.74 0 0 1 18.72-18.72z"/><path d="M110.08 118.43a23.62 23.62 0 1 0-23.62-23.62 23.65 23.65 0 0 0 23.62 23.62zm0-46.46a22.84 22.84 0 1 1-22.84 22.84A22.87 22.87 0 0 1 110.08 72z"/><path d="M110.08 122.55a27.74 27.74 0 1 0-27.73-27.74 27.77 27.77 0 0 0 27.73 27.74zm0-54.69a27 27 0 1 1-27 27 27 27 0 0 1 27-27.01z"/><path d="M110.08 126.66a31.85 31.85 0 1 0-31.85-31.85 31.89 31.89 0 0 0 31.85 31.85zm0-62.93A31.07 31.07 0 1 1 79 94.81a31.11 31.11 0 0 1 31.08-31.07z"/><path d="M74.9 94.81a35.23 35.23 0 0 1 .52-6l-1.06 1.83a35.88 35.88 0 0 0 21.47 37.2h2.09A35.25 35.25 0 0 1 74.9 94.81zM88.6 66l-1.07 1.85a35.1 35.1 0 0 1 45.1 0L131.57 66a35.9 35.9 0 0 0-43 0zm56.67 28.81a35.25 35.25 0 0 1-23 33h2.09a35.88 35.88 0 0 0 21.47-37.2l-1.06-1.83a35.23 35.23 0 0 1 .5 6.03z"/><path d="M150 98l-.7-1.21a39.31 39.31 0 0 1-18 31.08h1.42A40.09 40.09 0 0 0 150 98zm-79.17-1.25l-.7 1.25a40.09 40.09 0 0 0 17.26 29.87h1.42a39.31 39.31 0 0 1-17.98-31.12zm39.25-41.24a39 39 0 0 1 18 4.36l-.72-1.24a40 40 0 0 0-34.48 0l-.72 1.24a39 39 0 0 1 17.92-4.36z"/><path d="M80.74 127.83h1.2A43.42 43.42 0 0 1 67.4 102.7l-.61 1a44.21 44.21 0 0 0 13.95 24.13zm29.34-76.44a43.21 43.21 0 0 1 14.51 2.5l-.59-1a44 44 0 0 0-27.83 0l-.59 1a43.21 43.21 0 0 1 14.5-2.5zm28.15 76.44h1.2a44.21 44.21 0 0 0 14-24.08l-.61-1a43.42 43.42 0 0 1-14.59 25.08zM99.12 47.76l-.54.93a47.46 47.46 0 0 1 23 0l-.54-.93a48 48 0 0 0-21.94 0zm45.11 80.07h1.08a48.32 48.32 0 0 0 11-19l-.55-.95a47.54 47.54 0 0 1-11.53 19.95zM64.4 107.9l-.55.95a48.32 48.32 0 0 0 11 19h1.08A47.54 47.54 0 0 1 64.4 107.9zm-2.77 4.79l-.5.87a52.45 52.45 0 0 0 8.26 14.27h1a51.67 51.67 0 0 1-8.76-15.14zm96.91 0a51.67 51.67 0 0 1-8.78 15.14h1a52.45 52.45 0 0 0 8.24-14.27zm-48.46-69.53a51.73 51.73 0 0 1 8.75.76l-.51-.89a52.34 52.34 0 0 0-16.47 0l-.51.89a51.73 51.73 0 0 1 8.74-.76zm0-4.16a56.08 56.08 0 0 1 6.13.34l-.49-.85c-1.86-.18-3.74-.28-5.64-.28s-3.79.1-5.65.28l-.49.85a56.07 56.07 0 0 1 6.14-.34zm-44.9 88.83A55.79 55.79 0 0 1 59 117.2l-.48.83a56.56 56.56 0 0 0 5.68 9.8zm89.82 0h1a56.56 56.56 0 0 0 5.68-9.8l-.48-.83a55.79 55.79 0 0 1-6.2 10.63zm-48.07-93.61l-.47.82c1.2-.07 2.41-.12 3.63-.12s2.43 0 3.63.12l-.47-.82q-1.57-.08-3.15-.08t-3.17.08zm-50.41 87.32l-.47.81a60.67 60.67 0 0 0 3.18 5.49h.93a59.9 59.9 0 0 1-3.64-6.3zM160 127.83h.93a60.69 60.69 0 0 0 3.18-5.49l-.47-.81a59.9 59.9 0 0 1-3.64 6.3zm6.08-2.08c-.39.7-.78 1.4-1.2 2.08h.9l.75-1.29zm-111.99 0l-.45.78c.24.43.49.87.75 1.3h.9c-.42-.68-.81-1.38-1.2-2.08zm55.99-94.94h1.2l-.46-.8h-1.48l-.46.8c.41.02.8 0 1.2 0z"/><circle cx="110.08" cy="94.8" r=".72"/><path d="M52.89 127.83l.85-1.48.87 1.48h-1.72zm114.39 0l-.86-1.48-.86 1.48h1.72zm-57.2-99.07l-.85 1.47h1.7l-.85-1.47z"/></g><path d="M56.61 175v7.82h-.54v-1.22a2.6 2.6 0 0 1-2.3 1.31 2.85 2.85 0 0 1 0-5.7 2.44 2.44 0 0 1 2.29 1.3V175zm-5.06 5.06a2.14 2.14 0 0 0 2.26 2.31 2.32 2.32 0 0 0 0-4.64 2.14 2.14 0 0 0-2.26 2.34zm11.45.01a2.78 2.78 0 0 1 2.81-2.85 2.58 2.58 0 0 1 2.73 3.11h-5a2.17 2.17 0 0 0 2.25 2 2.6 2.6 0 0 0 2-.84l.39.31a3 3 0 0 1-2.38 1.06 2.71 2.71 0 0 1-2.8-2.79zm5-.22a2 2 0 0 0-2.24-2.12 2.21 2.21 0 0 0-2.25 2.12zm6.27-2.54h.6l2 4.88 2-4.88h.6l-2.31 5.52h-.6zm10.81 2.76a2.78 2.78 0 0 1 2.81-2.85 2.58 2.58 0 0 1 2.73 3.11h-5a2.17 2.17 0 0 0 2.25 2 2.6 2.6 0 0 0 2-.84l.39.31a3 3 0 0 1-2.38 1.06 2.71 2.71 0 0 1-2.8-2.79zm5-.22a2 2 0 0 0-2.24-2.12 2.21 2.21 0 0 0-2.25 2.12zm7.48-4.85v7.82H97V175zm6.26 5.08a2.81 2.81 0 1 1 5.61 0 2.81 2.81 0 1 1-5.61 0zm5.07 0a2.27 2.27 0 1 0-4.54 0 2.27 2.27 0 1 0 4.54 0zm6.79 5.05v-7.82h.54v1.31a2.63 2.63 0 0 1 2.39-1.39 2.85 2.85 0 0 1-.12 5.7 2.49 2.49 0 0 1-2.28-1.37v3.58zm5.06-5.06a2.13 2.13 0 0 0-2.26-2.31 2.33 2.33 0 0 0 0 4.65 2.14 2.14 0 0 0 2.26-2.34zm15.06 2.76v-3.31a1.71 1.71 0 0 0-1.77-1.81 1.74 1.74 0 0 0-1.78 1.84v3.27h-.55v-3.27a1.77 1.77 0 1 0-3.54 0v3.27h-.55v-5.52h.51v.92a1.94 1.94 0 0 1 1.8-1 2 2 0 0 1 2 1.36 2.13 2.13 0 0 1 2-1.36 2.22 2.22 0 0 1 2.31 2.32v3.31zm6.76-2.76a2.78 2.78 0 0 1 2.81-2.85 2.58 2.58 0 0 1 2.73 3.11h-5a2.17 2.17 0 0 0 2.25 2 2.6 2.6 0 0 0 2-.84l.39.31a3 3 0 0 1-2.38 1.06 2.71 2.71 0 0 1-2.8-2.79zm5-.22a2 2 0 0 0-2.24-2.12 2.21 2.21 0 0 0-2.25 2.12zm7.44-2.54v1a2.2 2.2 0 0 1 2-1.08 2.3 2.3 0 0 1 2.49 2.44v3.19h-.55v-3.17a1.77 1.77 0 0 0-2-1.91 1.92 1.92 0 0 0-1.93 2v3.07h-.55v-5.52zm11.94-1.67v1.67h1.88v.46h-1.88v3.36c0 .75.16 1.27 1 1.27a2 2 0 0 0 .85-.22l.19.45a2.41 2.41 0 0 1-1 .28c-1.17 0-1.55-.69-1.55-1.78v-3.36h-1.17v-.46h1.17v-1.61z" class="development"/><g class="craft"><path d="M73.94 162.52a13.22 13.22 0 0 1-9.53 3.73c-9.31 0-13.25-6.41-13.29-12.93s4.23-13.22 13.29-13.22a12.94 12.94 0 0 1 9.21 3.83l-3.15 3a8.61 8.61 0 0 0-6.05-2.36c-6.05 0-8.67 4.51-8.63 8.71s2.44 8.49 8.63 8.49a9.23 9.23 0 0 0 6.31-2.54zm24.89 3.16h-5.62l-7.31-8.38h-4.55v8.38h-4.73v-25.12h11.93c5.91 0 9 4 9 8.31 0 3.44-1.58 6.91-6.34 7.88l7.59 8.56zM81.35 145v8h7.2c3 0 4.3-2 4.3-4a3.93 3.93 0 0 0-4.3-4z"/><path d="M118.57 160.95h-13.11l-2.15 4.73h-5.12l11.25-25.08h5.16l11.25 25.08h-5.16zM112 145.87l-4.66 10.68h9.31zm15.6 19.81v-25h18v4.55h-13.27V152h12.57v4.37h-12.57v9.28zm28.88-20.78h-8v-4.3h20.63v4.3h-8v20.78h-4.73z"/></g></svg>